<?xml version="1.0" standalone="no"?>
<!DOCTYPE svg PUBLIC "-//W3C//DTD SVG 20010904//EN"
 "http://www.w3.org/TR/2001/REC-SVG-20010904/DTD/svg10.dtd">
<svg version="1.0" xmlns="http://www.w3.org/2000/svg"
 width="1234.000000pt" height="1000.000000pt" viewBox="0 0 1234.000000 1000.000000"
 preserveAspectRatio="xMidYMid meet">
<metadata>
Created by potrace 1.16, written by Peter Selinger 2001-2019
</metadata>
<g transform="translate(0.000000,1000.000000) scale(0.100000,-0.100000)"
fill="#000000" stroke="none">
<path d="M0 5000 l0 -5000 6170 0 6170 0 0 5000 0 5000 -6170 0 -6170 0 0
-5000z m8510 2480 l0 -670 -1385 0 -1385 0 0 -690 0 -690 1180 0 1180 0 0
-655 0 -655 -1180 0 -1180 0 0 -785 0 -785 1428 0 c1097 0 1431 -3 1440 -12 9
-9 12 -173 12 -675 l0 -663 -2370 0 -2370 0 0 3475 0 3475 2315 0 2315 0 0
-670z"/>
</g>
</svg>
